# xmcd CD database file
#
# Track frame offsets:
#	150
#	25091
#	38218
#	48028
#	58661
#	67161
#	77298
#	93650
#	103231
#	117191
#	127569
#	141548
#	149906
#	158033
#	168421
#	181393
#	194030
#	203517
#	216239
#	225859
#	237119
#	248675
#	260625
#	272679
#	276516
#	299108
#
# Disc length: 4112 seconds
#
# Revision: 0
# Processed by: cddbd v1.5.1PL2 Copyright (c) Steve Scherf et al.
# Submitted via: CDex 1.51
#
DISCID=8a100e1a
DTITLE=家族計画 - 家族計画　サントラ
DYEAR=2001
DGENRE=Anime
TTITLE0=同じ空の下で
TTITLE1=Phirosophy
TTITLE2=夏の情景
TTITLE3=家路
TTITLE4=夕凪
TTITLE5=silent moon
TTITLE6=雨のメロディ
TTITLE7=貝殻
TTITLE8=君を想う時
TTITLE9=追憶
TTITLE10=innocent
TTITLE11=in feer of…
TTITLE12=risk
TTITLE13=優しい風景
TTITLE14=境界線
TTITLE15=たんぽぽ
TTITLE16=空の向こうへ
TTITLE17=孤独の果て
TTITLE18=欠けたシナリオ
TTITLE19=青い鳥
TTITLE20=eternity life
TTITLE21=扉
TTITLE22=refrain
TTITLE23=prologue
TTITLE24=同じ空の下で（カラオケ）
TTITLE25=Phirosophy(カラオケ)
EXTD=YEAR: 2001
EXTT0=
EXTT1=
EXTT2=
EXTT3=
EXTT4=
EXTT5=
EXTT6=
EXTT7=
EXTT8=
EXTT9=
EXTT10=
EXTT11=
EXTT12=
EXTT13=
EXTT14=
EXTT15=
EXTT16=
EXTT17=
EXTT18=
EXTT19=
EXTT20=
EXTT21=
EXTT22=
EXTT23=
EXTT24=
EXTT25=
PLAYORDER=
